<svg width="118" height="58" viewBox="0 0 118 58" fill="none" xmlns="http://www.w3.org/2000/svg">
<g filter="url(#filter0_d_1_25)">
<rect x="3" y="3" width="110" height="50" rx="6" fill="white"/>
<path d="M32.0695 33.3463C31.9961 33.1995 31.9337 33.0307 31.8824 32.8399C31.831 32.649 31.7869 32.4472 31.7502 32.2343C31.5814 32.4178 31.3869 32.5903 31.1667 32.7518C30.9465 32.9133 30.7006 33.0564 30.429 33.1812C30.1648 33.2986 29.8712 33.3904 29.5482 33.4564C29.2252 33.5298 28.8766 33.5665 28.5022 33.5665C27.893 33.5665 27.3315 33.4784 26.8176 33.3023C26.3112 33.1261 25.8744 32.8802 25.5074 32.5646C25.1404 32.249 24.8541 31.8746 24.6486 31.4415C24.4431 31.0011 24.3403 30.524 24.3403 30.0102C24.3403 28.755 24.8064 27.7861 25.7386 27.1035C26.6782 26.4135 28.0765 26.0685 29.9335 26.0685H31.6401V25.3639C31.6401 24.7913 31.453 24.3399 31.0786 24.0096C30.7043 23.672 30.1648 23.5031 29.4601 23.5031C28.8362 23.5031 28.3811 23.6389 28.0948 23.9105C27.8086 24.1748 27.6654 24.5308 27.6654 24.9785H24.6046C24.6046 24.4721 24.7147 23.9913 24.9349 23.5362C25.1624 23.0811 25.4891 22.681 25.9148 22.3361C26.3479 21.9911 26.8727 21.7195 27.4893 21.5213C28.1132 21.3158 28.8252 21.213 29.6253 21.213C30.3446 21.213 31.0126 21.3011 31.6291 21.4773C32.253 21.6534 32.7925 21.914 33.2476 22.259C33.7027 22.604 34.0587 23.0407 34.3156 23.5692C34.5725 24.0904 34.701 24.6959 34.701 25.3859V30.4947C34.701 31.1333 34.7414 31.6618 34.8221 32.0801C34.9028 32.4985 35.0203 32.8582 35.1744 33.1592V33.3463H32.0695ZM29.1518 31.1993C29.4601 31.1993 29.7464 31.1626 30.0106 31.0892C30.2749 31.0158 30.5134 30.9204 30.7263 30.803C30.9391 30.6855 31.1227 30.5534 31.2768 30.4066C31.4309 30.2524 31.5521 30.0983 31.6401 29.9442V27.8962H30.0767C29.5996 27.8962 29.1922 27.944 28.8545 28.0394C28.5169 28.1275 28.2416 28.2559 28.0288 28.4247C27.8159 28.5862 27.6581 28.7844 27.5553 29.0193C27.4526 29.2468 27.4012 29.4964 27.4012 29.768C27.4012 30.179 27.5443 30.5204 27.8306 30.7919C28.1242 31.0635 28.5646 31.1993 29.1518 31.1993Z" fill="#222326"/>
<path d="M44.9485 27.9307C44.9485 36.4424 38.0484 43.3425 29.5368 43.3425C21.0251 43.3425 14.125 36.4424 14.125 27.9307C14.125 19.419 21.0251 12.5189 29.5368 12.5189C38.0484 12.5189 44.9485 19.419 44.9485 27.9307Z" stroke="#222326" stroke-width="3"/>
<path d="M54.1567 22.3926H55.2163C55.6037 22.3926 55.9536 22.3372 56.2661 22.2266C56.5786 22.1159 56.8455 21.9613 57.0669 21.7627C57.285 21.5674 57.4526 21.3346 57.5698 21.0645C57.6903 20.7943 57.7505 20.4997 57.7505 20.1807C57.7505 19.8389 57.6903 19.528 57.5698 19.248C57.4526 18.9681 57.285 18.7272 57.0669 18.5254C56.8455 18.3268 56.5786 18.1722 56.2661 18.0615C55.9536 17.9476 55.6037 17.8906 55.2163 17.8906H52.7847V25H54.1567V22.3926ZM54.1567 21.2793V19.0039H55.2163C55.4116 19.0039 55.5809 19.0348 55.7241 19.0967C55.8673 19.1585 55.9878 19.2432 56.0854 19.3506C56.1798 19.458 56.2498 19.5833 56.2954 19.7266C56.3442 19.8698 56.3686 20.0244 56.3686 20.1904C56.3686 20.3337 56.3442 20.472 56.2954 20.6055C56.2498 20.7357 56.1798 20.8512 56.0854 20.9521C55.9878 21.0531 55.8673 21.1328 55.7241 21.1914C55.5809 21.25 55.4116 21.2793 55.2163 21.2793H54.1567ZM61.3149 25.0977C61.826 25.0977 62.2687 24.9984 62.6431 24.7998C63.0174 24.6012 63.2908 24.3799 63.4634 24.1357L62.7847 23.4033C62.6284 23.6051 62.425 23.7565 62.1743 23.8574C61.9237 23.9583 61.6649 24.0088 61.3979 24.0088C61.2091 24.0088 61.035 23.9795 60.8755 23.9209C60.716 23.8623 60.5744 23.7793 60.4507 23.6719C60.3302 23.5677 60.2342 23.4521 60.1626 23.3252C60.091 23.195 60.0324 23.0241 59.9868 22.8125V22.7979H63.5708V22.2217C63.5708 21.8343 63.5171 21.4811 63.4097 21.1621C63.3022 20.8398 63.146 20.5648 62.9409 20.3369C62.7326 20.109 62.4787 19.9333 62.1792 19.8096C61.883 19.6826 61.5444 19.6191 61.1636 19.6191C60.7957 19.6191 60.4556 19.6859 60.1431 19.8193C59.8306 19.9528 59.5604 20.14 59.3325 20.3809C59.1047 20.6217 58.9272 20.9098 58.8003 21.2451C58.6733 21.5771 58.6099 21.945 58.6099 22.3486V22.5439C58.6099 22.8988 58.6733 23.2324 58.8003 23.5449C58.9305 23.8542 59.1144 24.1227 59.352 24.3506C59.5897 24.5817 59.8745 24.764 60.2065 24.8975C60.5386 25.0309 60.908 25.0977 61.3149 25.0977ZM61.1538 20.7178C61.3263 20.7178 61.4777 20.7454 61.6079 20.8008C61.7414 20.8529 61.8537 20.9245 61.9448 21.0156C62.036 21.11 62.1076 21.2207 62.1597 21.3477C62.2117 21.4746 62.2378 21.6097 62.2378 21.7529V21.8604H60.0112C60.0438 21.6878 60.0926 21.5316 60.1577 21.3916C60.2228 21.2516 60.3042 21.1312 60.4019 21.0303C60.4963 20.9294 60.6069 20.8529 60.7339 20.8008C60.8608 20.7454 61.0008 20.7178 61.1538 20.7178ZM68.5513 19.6191C68.1964 19.6191 67.8693 19.7054 67.5698 19.8779C67.2703 20.0472 67.0132 20.2816 66.7983 20.5811L66.7886 20.4639L66.7349 19.7168H65.4702V25H66.8276V21.8262C66.8895 21.6764 66.9676 21.5462 67.062 21.4355C67.1564 21.3249 67.2703 21.2337 67.4038 21.1621C67.5145 21.1003 67.6398 21.0547 67.7798 21.0254C67.923 20.9928 68.0825 20.9766 68.2583 20.9766C68.4276 20.9766 68.605 20.988 68.7905 21.0107C68.9793 21.0303 69.1632 21.0612 69.3423 21.1035L69.5425 19.751C69.4351 19.7184 69.2935 19.6891 69.1177 19.6631C68.9451 19.6338 68.7563 19.6191 68.5513 19.6191ZM71.6079 19.7168H70.4409V25H71.6763V21.0449C71.6925 21.0026 71.7104 20.9635 71.73 20.9277C71.7495 20.8919 71.7723 20.861 71.7983 20.835C71.8341 20.7992 71.8748 20.7715 71.9204 20.752C71.966 20.7324 72.0181 20.7227 72.0767 20.7227C72.1287 20.7227 72.1776 20.7308 72.2231 20.7471C72.2687 20.7601 72.3094 20.7845 72.3452 20.8203C72.3778 20.8561 72.4038 20.9066 72.4233 20.9717C72.4429 21.0368 72.4526 21.1198 72.4526 21.2207V25H73.6489V21.1035C73.6489 21.0645 73.6489 21.0335 73.6489 21.0107C73.6489 20.988 73.6489 20.9733 73.6489 20.9668C73.6652 20.931 73.6847 20.9001 73.7075 20.874C73.7303 20.8447 73.7563 20.8187 73.7856 20.7959C73.8214 20.7731 73.8589 20.7552 73.8979 20.7422C73.9403 20.7292 73.9875 20.7227 74.0395 20.7227C74.0884 20.7227 74.1356 20.7308 74.1811 20.7471C74.23 20.7601 74.2723 20.7845 74.3081 20.8203C74.3439 20.8594 74.3716 20.9115 74.3911 20.9766C74.4139 21.0417 74.4253 21.1247 74.4253 21.2256V25H75.6606V21.2305C75.6606 20.9375 75.6313 20.6901 75.5728 20.4883C75.5174 20.2832 75.4393 20.1156 75.3384 19.9854C75.2342 19.8584 75.1121 19.7656 74.9722 19.707C74.8354 19.6484 74.6873 19.6191 74.5278 19.6191C74.4009 19.6191 74.2837 19.6354 74.1763 19.668C74.0688 19.7005 73.9728 19.7461 73.8882 19.8047C73.8198 19.8503 73.7563 19.9056 73.6978 19.9707C73.6424 20.0326 73.592 20.1025 73.5464 20.1807C73.5171 20.0993 73.4813 20.0277 73.439 19.9658C73.3999 19.9007 73.3527 19.8454 73.2974 19.7998C73.2257 19.738 73.1411 19.6924 73.0435 19.6631C72.9458 19.6338 72.8351 19.6191 72.7114 19.6191C72.4575 19.6191 72.241 19.6859 72.062 19.8193C71.8862 19.9495 71.7479 20.1286 71.647 20.3564L71.6079 19.7168ZM80.0698 25H81.4468V24.917C81.3784 24.7835 81.3263 24.624 81.2905 24.4385C81.2547 24.2529 81.2368 24.0186 81.2368 23.7354V21.4697C81.2368 21.1637 81.1798 20.8952 81.0659 20.6641C80.952 20.4297 80.7941 20.236 80.5923 20.083C80.3905 19.93 80.1512 19.8145 79.8745 19.7363C79.6011 19.6582 79.3048 19.6191 78.9858 19.6191C78.631 19.6191 78.3153 19.6647 78.0386 19.7559C77.7651 19.8438 77.534 19.9642 77.3452 20.1172C77.1532 20.2702 77.0067 20.4476 76.9058 20.6494C76.8081 20.8512 76.7593 21.0645 76.7593 21.2891H78.1167C78.1167 21.1947 78.1297 21.1084 78.1558 21.0303C78.1851 20.9521 78.229 20.8854 78.2876 20.8301C78.3527 20.7682 78.4373 20.721 78.5415 20.6885C78.6457 20.6527 78.7694 20.6348 78.9126 20.6348C79.0754 20.6348 79.217 20.6559 79.3374 20.6982C79.4611 20.7373 79.5636 20.7943 79.645 20.8691C79.7231 20.9408 79.7817 21.027 79.8208 21.1279C79.8599 21.2256 79.8794 21.3363 79.8794 21.46V21.7725H79.1226C78.7319 21.7725 78.3853 21.8083 78.0825 21.8799C77.783 21.9482 77.5308 22.0492 77.3257 22.1826C77.0978 22.3291 76.9269 22.5163 76.813 22.7441C76.6991 22.9688 76.6421 23.2275 76.6421 23.5205C76.6421 23.7484 76.6877 23.96 76.7788 24.1553C76.87 24.3473 76.9969 24.5133 77.1597 24.6533C77.3224 24.7933 77.5161 24.9023 77.7407 24.9805C77.9686 25.0586 78.2176 25.0977 78.4878 25.0977C78.6538 25.0977 78.8084 25.0814 78.9517 25.0488C79.0949 25.0195 79.2267 24.9772 79.3472 24.9219C79.4644 24.8698 79.5718 24.8079 79.6694 24.7363C79.7671 24.6647 79.8533 24.5882 79.9282 24.5068C79.9445 24.6012 79.964 24.6908 79.9868 24.7754C80.0096 24.86 80.0373 24.9349 80.0698 25ZM78.7759 24.0479C78.6489 24.0479 78.5366 24.0332 78.439 24.0039C78.3446 23.9714 78.2648 23.929 78.1997 23.877C78.1346 23.8216 78.0841 23.7549 78.0483 23.6768C78.0158 23.5954 77.9995 23.5075 77.9995 23.4131C77.9995 23.2926 78.0223 23.182 78.0679 23.0811C78.1134 22.9769 78.1834 22.8874 78.2778 22.8125C78.3722 22.7409 78.4943 22.6855 78.644 22.6465C78.7938 22.6042 78.9744 22.583 79.186 22.583H79.8794V23.4912C79.8403 23.5596 79.7866 23.6279 79.7183 23.6963C79.6499 23.7614 79.5685 23.82 79.4741 23.8721C79.3797 23.9242 79.2739 23.9665 79.1567 23.999C79.0395 24.0316 78.9126 24.0479 78.7759 24.0479ZM82.7749 25H84.1372V21.2451C84.1828 21.1735 84.2332 21.1084 84.2886 21.0498C84.3439 20.9912 84.4058 20.9408 84.4741 20.8984C84.5588 20.8398 84.6548 20.7959 84.7622 20.7666C84.8729 20.7373 84.9933 20.7227 85.1235 20.7227C85.2798 20.7227 85.4198 20.7389 85.5435 20.7715C85.6672 20.8008 85.7729 20.8545 85.8608 20.9326C85.9487 21.0107 86.0155 21.1182 86.061 21.2549C86.1099 21.3883 86.1343 21.5592 86.1343 21.7676V25H87.4917V21.748C87.4917 21.3639 87.4461 21.0384 87.355 20.7715C87.2671 20.5013 87.1434 20.2799 86.9839 20.1074C86.8211 19.9382 86.6291 19.8145 86.4077 19.7363C86.1864 19.6582 85.9422 19.6191 85.6753 19.6191C85.467 19.6191 85.27 19.6484 85.0845 19.707C84.8989 19.7656 84.728 19.8503 84.5718 19.9609C84.4806 20.026 84.3944 20.0993 84.313 20.1807C84.2316 20.262 84.1567 20.3516 84.0884 20.4492L84.0054 19.7168H82.7749V25ZM91.3442 25.0977C91.8553 25.0977 92.298 24.9984 92.6724 24.7998C93.0467 24.6012 93.3201 24.3799 93.4927 24.1357L92.814 23.4033C92.6577 23.6051 92.4543 23.7565 92.2036 23.8574C91.953 23.9583 91.6942 24.0088 91.4272 24.0088C91.2384 24.0088 91.0643 23.9795 90.9048 23.9209C90.7453 23.8623 90.6037 23.7793 90.48 23.6719C90.3595 23.5677 90.2635 23.4521 90.1919 23.3252C90.1203 23.195 90.0617 23.0241 90.0161 22.8125V22.7979H93.6001V22.2217C93.6001 21.8343 93.5464 21.4811 93.439 21.1621C93.3315 20.8398 93.1753 20.5648 92.9702 20.3369C92.7619 20.109 92.508 19.9333 92.2085 19.8096C91.9123 19.6826 91.5737 19.6191 91.1929 19.6191C90.825 19.6191 90.4849 19.6859 90.1724 19.8193C89.8599 19.9528 89.5897 20.14 89.3618 20.3809C89.1339 20.6217 88.9565 20.9098 88.8296 21.2451C88.7026 21.5771 88.6392 21.945 88.6392 22.3486V22.5439C88.6392 22.8988 88.7026 23.2324 88.8296 23.5449C88.9598 23.8542 89.1437 24.1227 89.3813 24.3506C89.619 24.5817 89.9038 24.764 90.2358 24.8975C90.5679 25.0309 90.9373 25.0977 91.3442 25.0977ZM91.1831 20.7178C91.3556 20.7178 91.507 20.7454 91.6372 20.8008C91.7707 20.8529 91.883 20.9245 91.9741 21.0156C92.0653 21.11 92.1369 21.2207 92.189 21.3477C92.241 21.4746 92.2671 21.6097 92.2671 21.7529V21.8604H90.0405C90.0731 21.6878 90.1219 21.5316 90.187 21.3916C90.2521 21.2516 90.3335 21.1312 90.4311 21.0303C90.5255 20.9294 90.6362 20.8529 90.7632 20.8008C90.8901 20.7454 91.0301 20.7178 91.1831 20.7178ZM94.7866 25H96.1489V21.2451C96.1945 21.1735 96.245 21.1084 96.3003 21.0498C96.3556 20.9912 96.4175 20.9408 96.4858 20.8984C96.5705 20.8398 96.6665 20.7959 96.7739 20.7666C96.8846 20.7373 97.005 20.7227 97.1353 20.7227C97.2915 20.7227 97.4315 20.7389 97.5552 20.7715C97.6789 20.8008 97.7847 20.8545 97.8726 20.9326C97.9604 21.0107 98.0272 21.1182 98.0728 21.2549C98.1216 21.3883 98.146 21.5592 98.146 21.7676V25H99.5034V21.748C99.5034 21.3639 99.4578 21.0384 99.3667 20.7715C99.2788 20.5013 99.1551 20.2799 98.9956 20.1074C98.8328 19.9382 98.6408 19.8145 98.4194 19.7363C98.1981 19.6582 97.9539 19.6191 97.687 19.6191C97.4787 19.6191 97.2817 19.6484 97.0962 19.707C96.9106 19.7656 96.7397 19.8503 96.5835 19.9609C96.4923 20.026 96.4061 20.0993 96.3247 20.1807C96.2433 20.262 96.1685 20.3516 96.1001 20.4492L96.0171 19.7168H94.7866V25ZM103.283 18.4229H101.925V19.7168H100.719V20.7178H101.925V23.1201C101.925 23.4684 101.971 23.7679 102.062 24.0186C102.153 24.266 102.283 24.4694 102.453 24.6289C102.619 24.7917 102.819 24.9121 103.053 24.9902C103.291 25.0651 103.555 25.1025 103.844 25.1025C103.994 25.1025 104.145 25.0944 104.298 25.0781C104.455 25.0651 104.604 25.0456 104.748 25.0195C104.891 24.9935 105.026 24.9609 105.153 24.9219C105.28 24.8796 105.39 24.8307 105.485 24.7754L105.353 23.8428C105.291 23.859 105.216 23.8753 105.128 23.8916C105.044 23.9079 104.953 23.9225 104.855 23.9355C104.754 23.9518 104.648 23.9648 104.538 23.9746C104.43 23.9844 104.324 23.9893 104.22 23.9893C104.077 23.9893 103.947 23.973 103.83 23.9404C103.716 23.9079 103.618 23.8525 103.537 23.7744C103.455 23.6995 103.392 23.5986 103.346 23.4717C103.304 23.3415 103.283 23.1803 103.283 22.9883V20.7178H105.255V19.7168H103.283V18.4229ZM52.5098 34.5786V34.6709C52.5098 35.0195 52.5596 35.3418 52.6592 35.6377C52.7588 35.9307 52.9053 36.1855 53.0986 36.4023C53.2891 36.6191 53.5234 36.7891 53.8018 36.9121C54.083 37.0322 54.4023 37.0923 54.7598 37.0923C55.1143 37.0923 55.4307 37.0322 55.709 36.9121C55.9873 36.7891 56.2217 36.6191 56.4121 36.4023C56.6025 36.1855 56.7476 35.9307 56.8472 35.6377C56.9468 35.3418 56.9966 35.0195 56.9966 34.6709V34.5786C56.9966 34.2329 56.9468 33.9136 56.8472 33.6206C56.7476 33.3247 56.6025 33.0684 56.4121 32.8516C56.2187 32.6348 55.9829 32.4648 55.7046 32.3418C55.4263 32.2188 55.1084 32.1572 54.751 32.1572C54.3936 32.1572 54.0757 32.2188 53.7974 32.3418C53.522 32.4648 53.2891 32.6348 53.0986 32.8516C52.9053 33.0684 52.7588 33.3247 52.6592 33.6206C52.5596 33.9136 52.5098 34.2329 52.5098 34.5786ZM53.7314 34.6709V34.5786C53.7314 34.3853 53.7505 34.2021 53.7886 34.0293C53.8267 33.8564 53.8867 33.7041 53.9687 33.5723C54.0508 33.4404 54.1562 33.3364 54.2852 33.2603C54.4141 33.1841 54.5693 33.146 54.751 33.146C54.9355 33.146 55.0923 33.1841 55.2212 33.2603C55.3501 33.3364 55.4556 33.4404 55.5376 33.5723C55.6167 33.7041 55.6753 33.8564 55.7134 34.0293C55.7515 34.2021 55.7705 34.3853 55.7705 34.5786V34.6709C55.7705 34.8701 55.7515 35.0576 55.7134 35.2334C55.6753 35.4062 55.6167 35.5571 55.5376 35.686C55.4556 35.8179 55.3501 35.9219 55.2212 35.998C55.0923 36.0742 54.9385 36.1123 54.7598 36.1123C54.5752 36.1123 54.417 36.0742 54.2852 35.998C54.1562 35.9219 54.0508 35.8179 53.9687 35.686C53.8867 35.5571 53.8267 35.4062 53.7886 35.2334C53.7505 35.0576 53.7314 34.8701 53.7314 34.6709ZM58.082 37H59.3081V33.6206C59.3491 33.5562 59.3945 33.4976 59.4443 33.4448C59.4941 33.3921 59.5498 33.3467 59.6113 33.3086C59.6875 33.2559 59.7739 33.2163 59.8706 33.1899C59.9702 33.1636 60.0786 33.1504 60.1958 33.1504C60.3364 33.1504 60.4624 33.165 60.5737 33.1943C60.6851 33.2207 60.7803 33.269 60.8594 33.3394C60.9385 33.4097 60.9985 33.5063 61.0395 33.6294C61.0835 33.7495 61.1055 33.9033 61.1055 34.0908V37H62.3271V34.0732C62.3271 33.7275 62.2861 33.4346 62.2041 33.1943C62.125 32.9512 62.0137 32.752 61.8701 32.5967C61.7236 32.4443 61.5508 32.333 61.3516 32.2627C61.1523 32.1924 60.9326 32.1572 60.6924 32.1572C60.5049 32.1572 60.3276 32.1836 60.1606 32.2363C59.9936 32.2891 59.8398 32.3652 59.6992 32.4648C59.6172 32.5234 59.5395 32.5894 59.4663 32.6626C59.3931 32.7358 59.3257 32.8164 59.2642 32.9043L59.1894 32.2451H58.082V37ZM71.9951 35.6641L72.3686 37H73.6694L71.6128 30.6016H70.4922L68.396 37H69.6968L70.0747 35.6641H71.9951ZM70.3779 34.6138L71.0503 32.2583L71.7051 34.6138H70.3779ZM77.7124 32.1572C77.3931 32.1572 77.0986 32.2349 76.8291 32.3901C76.5596 32.5425 76.3281 32.7534 76.1348 33.0229L76.126 32.9175L76.0776 32.2451H74.9394V37H76.1611V34.1436C76.2168 34.0088 76.2871 33.8916 76.3721 33.792C76.457 33.6924 76.5596 33.6104 76.6797 33.5459C76.7793 33.4902 76.8921 33.4492 77.0181 33.4229C77.147 33.3936 77.2905 33.3789 77.4487 33.3789C77.6011 33.3789 77.7607 33.3892 77.9277 33.4097C78.0977 33.4272 78.2632 33.4551 78.4243 33.4932L78.6045 32.2759C78.5078 32.2466 78.3804 32.2202 78.2222 32.1968C78.0669 32.1704 77.897 32.1572 77.7124 32.1572ZM80.0547 37H81.1269L81.6323 34.46L81.729 33.9766L81.8301 34.46L82.353 37H83.4253L84.2778 32.2451H83.1572L82.8057 35.0488L82.7441 35.5103L82.6606 35.0576L82.1465 32.2451H81.3291L80.8149 35.0708L80.7314 35.5234L80.6743 35.0708L80.3184 32.2451H79.2021L80.0547 37ZM87.4155 37.0879C87.8755 37.0879 88.2739 36.9985 88.6108 36.8198C88.9478 36.6411 89.1938 36.4419 89.3491 36.2222L88.7383 35.563C88.5977 35.7446 88.4145 35.8809 88.189 35.9717C87.9634 36.0625 87.7305 36.1079 87.4902 36.1079C87.3203 36.1079 87.1636 36.0815 87.02 36.0288C86.8765 35.9761 86.749 35.9014 86.6377 35.8047C86.5293 35.7109 86.4429 35.6069 86.3784 35.4927C86.314 35.3755 86.2612 35.2217 86.2202 35.0312V35.0181H89.4458V34.4995C89.4458 34.1509 89.3975 33.833 89.3008 33.5459C89.2041 33.2559 89.0635 33.0083 88.8789 32.8032C88.6914 32.5981 88.4629 32.4399 88.1934 32.3286C87.9268 32.2144 87.6221 32.1572 87.2793 32.1572C86.9482 32.1572 86.6421 32.2173 86.3608 32.3374C86.0796 32.4575 85.8364 32.626 85.6313 32.8428C85.4263 33.0596 85.2666 33.3188 85.1523 33.6206C85.0381 33.9194 84.981 34.2505 84.981 34.6138V34.7896C84.981 35.1089 85.0381 35.4092 85.1523 35.6904C85.2695 35.9688 85.4351 36.2104 85.6489 36.4155C85.8628 36.6235 86.1191 36.7876 86.418 36.9077C86.7168 37.0278 87.0493 37.0879 87.4155 37.0879ZM87.2705 33.146C87.4258 33.146 87.562 33.1709 87.6792 33.2207C87.7993 33.2676 87.9004 33.332 87.9824 33.4141C88.0644 33.499 88.1289 33.5986 88.1758 33.7129C88.2227 33.8271 88.2461 33.9487 88.2461 34.0776V34.1743H86.2422C86.2715 34.019 86.3154 33.8784 86.374 33.7524C86.4326 33.6265 86.5059 33.5181 86.5937 33.4272C86.6787 33.3364 86.7783 33.2676 86.8926 33.2207C87.0068 33.1709 87.1328 33.146 87.2705 33.146ZM93.4844 37H94.7236V36.9253C94.6621 36.8052 94.6152 36.6616 94.583 36.4946C94.5508 36.3276 94.5347 36.1167 94.5347 35.8618V33.8228C94.5347 33.5474 94.4834 33.3057 94.3809 33.0977C94.2783 32.8867 94.1362 32.7124 93.9546 32.5747C93.7729 32.437 93.5576 32.333 93.3086 32.2627C93.0625 32.1924 92.7959 32.1572 92.5088 32.1572C92.1894 32.1572 91.9053 32.1982 91.6562 32.2803C91.4102 32.3594 91.2021 32.4678 91.0322 32.6055C90.8594 32.7432 90.7275 32.9028 90.6367 33.0845C90.5488 33.2661 90.5049 33.458 90.5049 33.6602H91.7266C91.7266 33.5752 91.7383 33.4976 91.7617 33.4272C91.7881 33.3569 91.8276 33.2969 91.8804 33.2471C91.939 33.1914 92.0151 33.1489 92.1089 33.1196C92.2026 33.0874 92.314 33.0713 92.4429 33.0713C92.5894 33.0713 92.7168 33.0903 92.8252 33.1284C92.9365 33.1636 93.0288 33.2148 93.102 33.2822C93.1724 33.3467 93.2251 33.4243 93.2603 33.5151C93.2954 33.603 93.313 33.7026 93.313 33.814V34.0952H92.6318C92.2803 34.0952 91.9683 34.1274 91.6958 34.1919C91.4263 34.2534 91.1992 34.3442 91.0146 34.4644C90.8096 34.5962 90.6558 34.7646 90.5532 34.9697C90.4507 35.1719 90.3994 35.4048 90.3994 35.6685C90.3994 35.8735 90.4404 36.064 90.5225 36.2397C90.6045 36.4126 90.7187 36.562 90.8652 36.688C91.0117 36.814 91.186 36.9121 91.3882 36.9824C91.5933 37.0527 91.8174 37.0879 92.0605 37.0879C92.21 37.0879 92.3491 37.0732 92.478 37.0439C92.6069 37.0176 92.7256 36.9795 92.834 36.9297C92.9394 36.8828 93.0361 36.8271 93.124 36.7627C93.2119 36.6982 93.2895 36.6294 93.3569 36.5562C93.3716 36.6411 93.3892 36.7217 93.4097 36.7979C93.4302 36.874 93.4551 36.9414 93.4844 37ZM92.3198 36.1431C92.2056 36.1431 92.1045 36.1299 92.0166 36.1035C91.9316 36.0742 91.8599 36.0361 91.8013 35.9893C91.7427 35.9395 91.6973 35.8794 91.665 35.8091C91.6357 35.7358 91.6211 35.6567 91.6211 35.5718C91.6211 35.4634 91.6416 35.3638 91.6826 35.2729C91.7236 35.1792 91.7866 35.0986 91.8716 35.0312C91.9565 34.9668 92.0664 34.917 92.2012 34.8818C92.3359 34.8438 92.4985 34.8247 92.689 34.8247H93.313V35.6421C93.2778 35.7036 93.2295 35.7651 93.168 35.8267C93.1064 35.8853 93.0332 35.938 92.9482 35.9849C92.8633 36.0317 92.7681 36.0698 92.6626 36.0991C92.5571 36.1284 92.4429 36.1431 92.3198 36.1431ZM97.4307 37H98.5776L100.384 32.2451H99.1094L98.0679 35.5981L98.0019 35.9321L97.936 35.5981L96.8901 32.2451H95.6157L97.4307 37ZM103.631 37.0879C104.091 37.0879 104.49 36.9985 104.827 36.8198C105.164 36.6411 105.41 36.4419 105.565 36.2222L104.954 35.563C104.813 35.7446 104.63 35.8809 104.405 35.9717C104.179 36.0625 103.946 36.1079 103.706 36.1079C103.536 36.1079 103.379 36.0815 103.236 36.0288C103.092 35.9761 102.965 35.9014 102.854 35.8047C102.745 35.7109 102.659 35.6069 102.594 35.4927C102.53 35.3755 102.477 35.2217 102.436 35.0312V35.0181H105.662V34.4995C105.662 34.1509 105.613 33.833 105.517 33.5459C105.42 33.2559 105.279 33.0083 105.095 32.8032C104.907 32.5981 104.679 32.4399 104.409 32.3286C104.143 32.2144 103.838 32.1572 103.495 32.1572C103.164 32.1572 102.858 32.2173 102.577 32.3374C102.295 32.4575 102.052 32.626 101.847 32.8428C101.642 33.0596 101.482 33.3188 101.368 33.6206C101.254 33.9194 101.197 34.2505 101.197 34.6138V34.7896C101.197 35.1089 101.254 35.4092 101.368 35.6904C101.485 35.9688 101.651 36.2104 101.865 36.4155C102.079 36.6235 102.335 36.7876 102.634 36.9077C102.933 37.0278 103.265 37.0879 103.631 37.0879ZM103.486 33.146C103.642 33.146 103.778 33.1709 103.895 33.2207C104.015 33.2676 104.116 33.332 104.198 33.4141C104.28 33.499 104.345 33.5986 104.392 33.7129C104.438 33.8271 104.462 33.9487 104.462 34.0776V34.1743H102.458C102.487 34.019 102.531 33.8784 102.59 33.7524C102.648 33.6265 102.722 33.5181 102.81 33.4272C102.895 33.3364 102.994 33.2676 103.108 33.2207C103.223 33.1709 103.349 33.146 103.486 33.146Z" fill="#222326"/>
<rect x="3.5" y="3.5" width="109" height="49" rx="5.5" stroke="black"/>
</g>
<defs>
<filter id="filter0_d_1_25" x="0" y="0" width="118" height="58" filterUnits="userSpaceOnUse" color-interpolation-filters="sRGB">
<feFlood flood-opacity="0" result="BackgroundImageFix"/>
<feColorMatrix in="SourceAlpha" type="matrix" values="0 0 0 0 0 0 0 0 0 0 0 0 0 0 0 0 0 0 127 0" result="hardAlpha"/>
<feOffset dx="1" dy="1"/>
<feGaussianBlur stdDeviation="2"/>
<feComposite in2="hardAlpha" operator="out"/>
<feColorMatrix type="matrix" values="0 0 0 0 0 0 0 0 0 0 0 0 0 0 0 0 0 0 0.25 0"/>
<feBlend mode="normal" in2="BackgroundImageFix" result="effect1_dropShadow_1_25"/>
<feBlend mode="normal" in="SourceGraphic" in2="effect1_dropShadow_1_25" result="shape"/>
</filter>
</defs>
</svg>
