<svg
      width='40'
      height='40'
      viewBox="0 0 40 40"
      fill="none"
      xmlns="http://www.w3.org/2000/svg"
    >
      <path
        d="M40 20C40 31.0451 31.0451 40 20 40C8.95493 40 0 31.0451 0 20C0 8.95493 8.95493 0 20 0C31.0474 0 40 8.95493 40 20Z"
        fill="#2081E2"
      />
      <path
        d="M9.86718 20.672L9.95349 20.5364L15.1563 12.3973C15.2323 12.2781 15.4111 12.2904 15.4686 12.4199C16.3378 14.3679 17.0878 16.7905 16.7364 18.2987C16.5864 18.9192 16.1755 19.7597 15.7131 20.5364C15.6535 20.6494 15.5878 20.7604 15.5179 20.8672C15.485 20.9165 15.4296 20.9453 15.37 20.9453H10.0192C9.8754 20.9453 9.79118 20.7892 9.86718 20.672Z"
        fill="white"
      />
      <path
        d="M33.0578 22.1844V23.4728C33.0578 23.5467 33.0126 23.6125 32.9469 23.6412C32.5441 23.8139 31.1653 24.4468 30.592 25.244C29.129 27.2803 28.0112 30.192 25.5125 30.192H15.0885C11.3939 30.192 8.40002 27.1879 8.40002 23.481V23.3618C8.40002 23.2632 8.48016 23.183 8.57882 23.183H14.3898C14.5049 23.183 14.5891 23.2899 14.5789 23.4029C14.5378 23.781 14.6076 24.1673 14.7864 24.5187C15.1316 25.2193 15.8467 25.657 16.6193 25.657H19.496V23.4111H16.6522C16.5063 23.4111 16.42 23.2426 16.5042 23.1234C16.535 23.0762 16.57 23.0268 16.607 22.9714C16.8762 22.5892 17.2604 21.9953 17.6426 21.3193C17.9035 20.8632 18.1563 20.3761 18.3597 19.8871C18.4008 19.7988 18.4337 19.7084 18.4666 19.62C18.5221 19.4638 18.5796 19.3179 18.6207 19.172C18.6618 19.0488 18.6946 18.9193 18.7275 18.798C18.8241 18.383 18.8652 17.9432 18.8652 17.4871C18.8652 17.3083 18.857 17.1213 18.8406 16.9425C18.8323 16.7473 18.8077 16.5521 18.783 16.3569C18.7666 16.1843 18.7358 16.0138 18.7029 15.835C18.6618 15.574 18.6042 15.3152 18.5385 15.0542L18.5159 14.9556C18.4666 14.7768 18.4255 14.6062 18.3679 14.4275C18.2056 13.8665 18.0186 13.3199 17.8214 12.8083C17.7494 12.6048 17.6672 12.4096 17.585 12.2144C17.4638 11.9206 17.3405 11.6535 17.2275 11.4007C17.17 11.2856 17.1206 11.1808 17.0714 11.074C17.0159 10.9528 16.9583 10.8316 16.9008 10.7164C16.8597 10.6281 16.8124 10.5459 16.7796 10.4637L16.4282 9.8144C16.3789 9.72604 16.4611 9.62124 16.5576 9.64795L18.7563 10.2439H18.7625C18.7666 10.2439 18.7686 10.2459 18.7707 10.2459L19.0604 10.326L19.3789 10.4164L19.496 10.4493V9.14249C19.496 8.51164 20.0015 8 20.6262 8C20.9385 8 21.2221 8.12738 21.4255 8.33493C21.6289 8.54249 21.7563 8.82604 21.7563 9.14249V11.0822L21.9906 11.148C22.0091 11.1541 22.0276 11.1624 22.044 11.1747C22.1015 11.2178 22.1837 11.2816 22.2885 11.3596C22.3707 11.4254 22.4591 11.5055 22.5659 11.5877C22.7776 11.7583 23.0303 11.9781 23.3077 12.2308C23.3817 12.2946 23.4536 12.3603 23.5194 12.4261C23.8769 12.7589 24.2776 13.1494 24.6598 13.5809C24.7666 13.7021 24.8714 13.8254 24.9783 13.9548C25.0851 14.0864 25.1982 14.2158 25.2968 14.3453C25.4262 14.5179 25.5659 14.6966 25.6872 14.8836C25.7447 14.972 25.8105 15.0624 25.866 15.1508C26.0221 15.3871 26.1598 15.6316 26.2913 15.8761C26.3468 15.9891 26.4043 16.1124 26.4536 16.2336C26.5995 16.5604 26.7146 16.8932 26.7886 17.2261C26.8112 17.298 26.8276 17.3761 26.8358 17.446V17.4624C26.8605 17.5611 26.8687 17.6659 26.8769 17.7727C26.9098 18.1138 26.8934 18.4549 26.8194 18.798C26.7886 18.944 26.7475 19.0816 26.6982 19.2275C26.6488 19.3672 26.5995 19.5131 26.5358 19.6508C26.4126 19.9364 26.2666 20.222 26.094 20.4892C26.0386 20.5878 25.9728 20.6926 25.907 20.7912C25.8351 20.896 25.7612 20.9947 25.6954 21.0912C25.605 21.2145 25.5084 21.344 25.4098 21.459C25.3214 21.5803 25.231 21.7015 25.1324 21.8084C24.9947 21.9707 24.8632 22.1248 24.7255 22.2728C24.6434 22.3693 24.555 22.468 24.4646 22.5563C24.3762 22.6549 24.2858 22.7433 24.2036 22.8255C24.0659 22.9632 23.9509 23.07 23.8543 23.1584L23.6282 23.3659C23.5954 23.3947 23.5522 23.4111 23.507 23.4111H21.7563V25.657H23.9591C24.4522 25.657 24.9207 25.4824 25.2988 25.1618C25.4283 25.0488 25.9934 24.5597 26.6612 23.8221C26.6838 23.7974 26.7126 23.7789 26.7454 23.7707L32.8297 22.0118C32.9427 21.9789 33.0578 22.0652 33.0578 22.1844Z"
        fill="white"
      />
    </svg>
